<svg xmlns="http://www.w3.org/2000/svg" width="157" height="44" viewBox="0 0 157 44">
    <g fill="none" fill-rule="evenodd">
        <path fill="#232C31" d="M44.806 15.012c-.332 0-.604.258-.604.574v6.96c0 .316.272.574.604.574h.497a5.7 5.7 0 0 0 1.187-.15s2.035-.528 2.035-2.64V18.3c0-.316-.063-.825-.139-1.133l-1.52-1.946a4.016 4.016 0 0 0-1.166-.21h-.894zM48.96 37.64c-.237-.68-.396-1.095-.396-3.244v-3.574c0-.316-.066-.825-.146-1.132 0 0-.727-2.799-2.71-2.799h-.903c-.332 0-.604.258-.604.575v9.6c0 .315-.272.574-.604.574h-3.155c-.332 0-.603-.259-.603-.574V11.814c0-.315.271-.574.603-.574h5.377c.332 0 .874.029 1.204.063 0 0 2.745.29 3.781 1.003 1.43.982 2.083 2.646 2.083 5.006v1.5c0 .317-.052.829-.115 1.139 0 0-.798 3.923-2.741 4.79 2.181.868 2.895 2.867 2.895 5.62v3.499c0 .316.005.832.01 1.149l.327 2.072c.077.307-.133.559-.465.559H48.96zM63.264 21.785c0 .32.266.58.59.58h4.616c.325 0 .592.262.592.581v2.611c0 .32-.267.58-.592.58h-4.615c-.325 0-.59.261-.59.58v6.57c0 .32.265.582.59.582h6.114c.325 0 .591.26.591.58v2.61c0 .32-.266.581-.591.581H59.632a.588.588 0 0 1-.592-.58V11.82c0-.32.266-.581.592-.581h10.337c.325 0 .591.26.591.581v2.61c0 .32-.266.581-.591.581h-6.114c-.325 0-.59.26-.59.58v6.193zM87.734 28.321c.323 0 .586.265.586.588v2.378c0 .324-.035.85-.076 1.172 0 0-.4 3.053-1.337 4.192-1.044 1.27-2.66 1.949-4.827 1.949-4.109 0-6.24-2.446-6.24-6.724V18.554c0-.324.035-.85.078-1.171 0 0 .408-3.085 1.362-4.225 1.045-1.25 2.652-1.918 4.8-1.918 4.109 0 6.24 2.446 6.24 6.726v2.01a.588.588 0 0 1-.586.588H84.95a.589.589 0 0 1-.586-.588v-1.69c0-.323-.08-.84-.178-1.148 0 0-.658-2.076-1.99-2.076-1.333 0-2.17.726-2.17 2.636v13.856c0 .324.082.84.181 1.149 0 0 .656 2.038 1.988 2.038 1.333 0 2.169-.688 2.169-2.599V28.91c0-.323.263-.588.586-.588h2.785zM99.945 32.2c.047.316.125.316.172 0l3.048-20.385a.703.703 0 0 1 .676-.575h2.692c.324 0 .549.259.5.574l-3.96 25.252a.708.708 0 0 1-.68.574h-5.106a.708.708 0 0 1-.68-.574l-3.96-25.252a.486.486 0 0 1 .5-.574h3.074c.325 0 .63.259.677.575L99.945 32.2zM116.91 32.142c0 1.911.823 2.637 2.13 2.637 1.308 0 2.13-.726 2.13-2.637V18.287c0-.324-.078-.84-.174-1.149 0 0-.648-2.076-1.955-2.076-1.308 0-1.956 2.076-1.956 2.076a4.642 4.642 0 0 0-.175 1.149v13.855zm-4.11-14.176c0-4.28 2.205-6.726 6.24-6.726 4.036 0 6.24 2.447 6.24 6.726v13.32c0 .325-.03.852-.067 1.173 0 0-.302 2.615-1.016 3.71-1.03 1.578-2.774 2.431-5.156 2.431-2.336 0-4.057-.818-5.094-2.338-.755-1.106-1.077-3.803-1.077-3.803-.038-.32-.07-.848-.07-1.172v-13.32zM131.04 11.821c0-.32.262-.581.583-.581h3.006c.321 0 .584.26.584.581v21.467c0 .32.263.58.584.58h5.699c.322 0 .584.262.584.581v2.61c0 .32-.262.581-.584.581h-9.873a.583.583 0 0 1-.583-.58V11.82zM143.52 11.821c0-.32.273-.581.609-.581h12.223c.334 0 .608.26.608.581v2.61c0 .32-.274.581-.608.581h-3.33c-.334 0-.608.26-.608.58V37.06c0 .32-.275.581-.61.581h-3.13c-.334 0-.609-.26-.609-.58V15.591c0-.32-.274-.58-.608-.58h-3.328c-.336 0-.609-.261-.609-.581v-2.61z"/>
        <path fill="#F7411D" d="M24.957 19.306c.036-.441-.28-.923-.701-1.07l-8.043-2.804a12.29 12.29 0 0 1-1.479-.651l-4.407-2.376a46.198 46.198 0 0 0-1.036-.544 8.352 8.352 0 0 1-.708-.412 6.89 6.89 0 0 0-.612-.36c-.124-.06.05-.487.147-.715.098-.227.307-.48.466-.561.159-.082.83.026 1.163.159.334.133.768.264.963.291.196.028.995-.012 1.44-.056l1.07-.107c.445-.045.932-.14 1.083-.213.15-.073.418-.753.52-1.184l.26-1.107c.102-.432.163-.914.136-1.073-.027-.158-.637-.542-1.047-.72l-6.64-2.871c-.41-.177-.879-.326-1.043-.332-.164-.005-.686.497-.955.85L.586 9.936c-.27.353-.53.773-.58.935-.05.161.253.83.491 1.205l6.233 9.78c.238.373.486.824.55 1 .065.177.013.95-.06 1.386l-3.012 17.81c-.074.437-.1.898-.06 1.025.04.127.715.234 1.161.237l14.422.086c.446.003.925-.038 1.063-.09.139-.052.235-.73.213-1.172l-.733-15.005c-.021-.442.279-.983.667-1.201l1.097-.663c.399-.2.895-.684 1.103-1.075l1.299-2.441a4.654 4.654 0 0 0 .443-1.515l.074-.932zM14.816 1.686a.4.4 0 0 0-.209-.598L11.282.235a.61.61 0 0 0-.713.247L9.185 2.405a.434.434 0 0 0 .199.628l3.196 1.441a.57.57 0 0 0 .703-.22l.16-.27c.14-.232.366-.612.505-.844l.868-1.454z"/>
        <path fill="#F7411D" d="M26.416 8.506c-.175-.205-.445-.193-.603.027l-4.128 6.602c-.157.22-.09.488.15.596l2.585.741c.24.108.577.028.75-.179l3.02-4.06a.602.602 0 0 0 0-.748l-1.774-2.979zM22.74 4.631a.463.463 0 0 0-.685.092l-6.136 8.63c-.16.23-.07.496.199.594l3.606 1.575c.268.098.63 0 .804-.22l5.282-7.479a.525.525 0 0 0-.08-.725l-2.99-2.467zM17.549 1.691a.607.607 0 0 0-.742.208L15.04 4.642c-.15.233-.06.519.198.634l1.12.5c.26.117.42.43.358.698l-1.022 4.378c-.062.267-.601.509-.886.535l-3.062.285c-.284.026-.303.14-.042.251l3.034 1.19c.261.112.602.016.759-.214l6.023-8.817c.157-.229.075-.515-.183-.633L17.55 1.69z"/>
    </g>
</svg>
